<?xml version="1.0" encoding="UTF-8"?>
<svg id="Layer_1" data-name="Layer 1" xmlns="http://www.w3.org/2000/svg" xmlns:xlink="http://www.w3.org/1999/xlink" viewBox="0 0 1080 1080">
  <defs>
    <style>
      .cls-1 {
        fill: #010101;
      }

      .cls-2 {
        fill: #edb82c;
      }

      .cls-3 {
        fill: url(#Degradado_sin_nombre_27);
      }

      .cls-4 {
        fill: url(#Degradado_sin_nombre_28);
      }
    </style>
    <linearGradient id="Degradado_sin_nombre_27" data-name="Degradado sin nombre 27" x1="557.56" y1="151.98" x2="557.07" y2="320.55" gradientUnits="userSpaceOnUse">
      <stop offset="0" stop-color="#d3482f"/>
      <stop offset=".12" stop-color="#e45c25"/>
      <stop offset="1" stop-color="#ecd047"/>
    </linearGradient>
    <linearGradient id="Degradado_sin_nombre_28" data-name="Degradado sin nombre 28" x1="504.45" y1="183.53" x2="497.62" y2="351.96" gradientUnits="userSpaceOnUse">
      <stop offset="0" stop-color="#df7939"/>
      <stop offset=".8" stop-color="#f0d13b"/>
      <stop offset="1" stop-color="#e9d149"/>
    </linearGradient>
  </defs>
  <rect class="cls-2" x="676.81" y="651.41" width="254.46" height="163.89"/>
  <path class="cls-3" d="M606.12,274.6c-1.25,26.06-22.95,48.41-48.28,54.35,6.55-13.03,7.84-26.26,5.58-40.28-2.44-15.13-11.61-26.01-23.62-35.18l-13.86-10.59c-16.8-12.84-21.73-34.81-13.96-54.64,7.69-19.59,23.71-35.6,45.59-41.97-7.73,18.9-10.56,44.87,1.03,60.05,10.24,13.41,24.22,22.13,36.51,33.55,9.28,8.62,11.6,22.03,11,34.72Z"/>
  <path class="cls-4" d="M546.53,283.21c7.71,19.22,1.75,40.99-10.94,56.4-4.31,7.5-12.89,15.17-21.49,16.38-4.17,2.58-8.46,4.13-12.86,4.66,8.78-23.51,10-45.28-7.7-64.9-11.5-9.28-22.5-19-33.01-29.16-9.45-14.65-11.24-31.99-4.67-48.74,6.91-17.61,24.51-34.3,44.3-38.78-2.06,8.48-5.16,14.85-5.87,22.77-1.72,19.11,4.78,38.17,20.25,49.79,12.4,9.31,24.28,18.77,31.99,31.59Z"/>
  <path class="cls-1" d="M760.77,824.19l29.84.22c-116.41,121.36-296.66,143.71-439.99,56.75-18.12-10.99-33.68-23.7-49.89-36.93l-20.79-20.03,30.27-.14c40.06,36.84,87.4,62.71,140.04,76.7,49.39,13.62,100.21,15.66,150.34,5.2,60.1-12.54,114.67-39.8,160.19-81.77ZM711.13,824.11c-104.15,75.71-246.26,75.51-350.78-.02l-31.03.07c33.9,29.46,73.47,50.14,116.46,62.91,80.07,23.78,165.43,15.27,238.9-24.1,20.46-10.97,39.4-22.77,56.35-38.33l-29.91-.53ZM538.28,713.96c-29.63,1.65-59.81-2.46-76.56-28.4l81.01.1-.12-18.9-103.1.05-.03,135.04,103.32-.06-.2-18.93-84.06-.06.16-71.1c15.19,12.33,31.52,18.68,49.76,20.84l29.87.56-.04-19.13ZM165.5,730.91c1.45-21.58,16.67-40.02,38.71-45.27,15.55-3.7,31.41,1.26,43.35,11.42l12.55-14.34c-28.71-24.79-71-21.94-96.07,5.33-24.81,26.99-24.09,70.73,3.32,96.06,20.8,19.22,49.77,24.84,75.46,13.05,23.82-10.93,40.95-34.35,40.2-63.03l-18.98-.08c.34,16.52-7.46,31.2-19.33,40.17-13.15,9.93-29.34,12.84-45.37,7.26-22.36-7.79-35.35-28.3-33.85-50.57ZM662.98,714.07c-29.58,1.27-62.07-2.29-77.48-28.59l80.87.13-.19-18.97-103.42.14.05,134.9,18.94-.24-.02-90.13c13.71,11.8,29.28,17.87,46.47,20.56l34.94,1.44-.17-19.24ZM320.92,740.05c38.21,5.87,66.42,24.3,79.32,61.48l17.87.13.1-135.01-18.92.37-.42,93.44c-24.25-29.72-59.69-40.32-96.64-41.25l-.23,82.32,18.95.07v-61.54ZM320.96,666.99l-18.97-.28.15,47.25,18.63,1.35.18-48.32ZM876.52,664.94l.18,80.17-60.19.03,27.96-80.39-20.74.03-27.4,80.02c-2.1,6.13-.07,12.86-.48,19.33l80.92.05-.08,38.62,19.07.09.11-38.26,13.38-.39.07-18.58c-5.77-.4-9.87-1.73-12.31-3.97l.47-76.75h-20.97ZM793.58,686.8l.21-21.82-103.48-.12.03,19.46,82.44.33-62.72,117.63c7.71,1.56,14.08.83,21.8.54l61.73-116.02ZM897.65,742.07l-.16-77.11-1.15,80.12,13,.61c.01-3.15-4.96-.68-11.68-3.61ZM815.73,366.8c-51.21-66.71-123.48-112.13-204.67-130.2,2.91,8.25,6.64,15.04,7.81,24.07,65.92,17.37,124.67,54.09,169.11,106.74l27.74-.61ZM771.53,366.84c-41.16-45.78-92.95-77.45-151-93.27.08,7.5-.56,12.83-2.36,19.62,47.84,14.3,91.21,38.97,126.96,74.26l26.4-.61ZM438.2,242.63c-72.11,20.92-135.37,63.74-182.05,124.22l27.45.33c41.72-49.86,96.39-84.58,158.27-103.53-2.61-8.88-3.06-13.6-3.66-21.03ZM445.96,274.84c-56.37,17.12-107.43,48.15-146.51,92.42l27.04.05c35.88-36.13,81.08-61.02,129.76-75.17-4.87-6.09-7.39-10.49-10.29-17.31ZM501.46,360.56c11.32-21.94,8.73-53.22-8.95-67.53l-23.58-19.08-8.39-7.36c1.33,2.06,1.86,5.06,4.94,7.06,6.74,4.35,12.35,9.82,18.36,15.2,14.96,13.39,22.38,18.41,22.41,42.73.01,9.49-1.12,19.51-6.47,27.79,1.38,3.09,6.34,2.12,9.43.03l4.89-3.4c-4.53.63-6.93,2.37-12.63,4.57ZM546.53,283.21c4.71,16.21,2.19,33.54-6.47,48.61l-4.47,7.79c14.35-12.79,20.42-40.63,10.94-56.4ZM610.65,634.88h35.3s.04-248.08.04-248.08h-35.3s-.04,248.08-.04,248.08ZM310.75,494.08c21.15,7.83,36.97,24.15,43.74,42.48,8.84,23.93,5.9,47.73-7.8,67.31-13.77,19.67-35.68,30.83-59.88,30.85l-132.48.1-.03-248.04,129.89.2c31.07.05,56.07,24.18,58.07,54.66,1.43,21.92-10.59,40.67-31.5,52.45ZM324.44,566.45c2.09-22.23-9.33-41.58-30.05-49.33-16.18-6.18-33.07-5.97-50.28-2.67-18.94,3.96-36.39,10.86-54.43,18.06l.04,68.88,100.34-.06c18.98-2.65,33.09-16.77,34.37-34.88ZM303.68,432.42c-3.48-5.26-9.47-8.83-17.06-10.25l-96.95-.15.06,73.72,95.34-28.32c7.67-2.71,15.53-5.87,19.85-13.32,4.25-7.33,2.98-15.32-1.23-21.68ZM577.09,634.94l-67.9-.37c-32.69-19.86-60.79-44.26-85.99-72.97l-.18,73.27-35.34-.11-.07-247.97,105.32.39c28.75.11,55.18,16.47,70.31,37.67,18.16,25.45,22.39,55.22,12.75,84.34-12.94,39.1-50.79,63.69-92.38,62.45,27.33,24.94,59.43,43.39,93.71,56.49.21,2.74.25,4.36-.21,6.8ZM545.52,473.53c-3.02-27.64-23.96-50.82-52.62-51l-69.8-.45.17,59.82c.07,24.9,16.44,45.09,40.1,51.74,14.89,4.34,30.01,4.97,45.17-.51,25.66-9.29,39.88-33.09,36.98-59.59ZM933.91,510.19c0,70.49-57.14,127.63-127.63,127.63s-127.63-57.14-127.63-127.63,57.14-127.63,127.63-127.63,127.63,57.14,127.63,127.63ZM806.33,417.8c-51.11,0-92.55,41.44-92.54,92.56,0,51.11,41.44,92.55,92.56,92.54,51.11,0,92.55-41.44,92.54-92.56,0-51.11-41.44-92.55-92.56-92.54Z"/>
</svg>